<svg xmlns="http://www.w3.org/2000/svg" xmlns:xlink="http://www.w3.org/1999/xlink" version="1.1" x="0px" y="0px" viewBox="0 0 512 640" style="enable-background:new 0 0 512 512;" xml:space="preserve"><g><path d="M421,416.911c26.467,0,48-21.533,48-48V143.088c0-26.467-21.533-48-48-48H91c-26.467,0-48,21.533-48,48v225.823   c0,26.467,21.533,48,48,48H421z M416.873,131.088L260.61,233.35c-4.056,2.654-9.269,2.617-13.286-0.096L96.029,131.088H416.873z    M79,368.911V163.028l148.178,100.06c16.063,10.848,36.924,10.999,53.146,0.385L433,163.559v205.353c0,6.617-5.383,12-12,12H91   C84.383,380.911,79,375.528,79,368.911z"/></g><text x="0" y="527" fill="#000000" font-size="5px" font-weight="bold" font-family="'Helvetica Neue', Helvetica, Arial-Unicode, Arial, Sans-serif">Created by Panda Icons</text><text x="0" y="532" fill="#000000" font-size="5px" font-weight="bold" font-family="'Helvetica Neue', Helvetica, Arial-Unicode, Arial, Sans-serif">from the Noun Project</text></svg>