<?xml version="1.0" ?><!DOCTYPE svg  PUBLIC '-//W3C//DTD SVG 1.1//EN'  'http://www.w3.org/Graphics/SVG/1.1/DTD/svg11.dtd'><svg enable-background="new 0 0 800 800" height="800px" id="GUIDE" version="1.1" viewBox="0 0 800 800" width="800px" xml:space="preserve" xmlns="http://www.w3.org/2000/svg" xmlns:cc="http://creativecommons.org/ns#" xmlns:dc="http://purl.org/dc/elements/1.1/" xmlns:inkscape="http://www.inkscape.org/namespaces/inkscape" xmlns:rdf="http://www.w3.org/1999/02/22-rdf-syntax-ns#" xmlns:sodipodi="http://sodipodi.sourceforge.net/DTD/sodipodi-0.dtd" xmlns:svg="http://www.w3.org/2000/svg" xmlns:xlink="http://www.w3.org/1999/xlink"><path d="M649.674,718.636H502.891L261.762,477.505l65.956-65.951c40.337,29.141,88.646,44.886,139.387,44.886  c63.745,0,123.676-24.824,168.752-69.898c3.553-3.557,5.547-8.376,5.547-13.396c0-5.02-1.994-9.839-5.547-13.39l-141.97-141.977  l40.197-40.197c8.051,4.031,17.121,6.32,26.721,6.32c32.992,0,59.826-26.84,59.826-59.826c0-32.992-26.834-59.826-59.826-59.826  c-32.985,0-59.825,26.834-59.825,59.826c0,9.599,2.284,18.667,6.319,26.72l-40.196,40.197L325.128,49.022  c-3.551-3.551-8.369-5.545-13.393-5.545s-9.839,1.994-13.391,5.545c-45.076,45.077-69.9,105.007-69.9,168.756  c0,44.027,11.848,86.235,34.024,122.985l-92.23,92.232c-12.877,9.758-21.211,25.214-21.211,42.574  c0,22.433,13.906,41.668,33.544,49.566l89.868,193.498H150.328c-10.462,0-18.941,8.479-18.941,18.94s8.479,18.94,18.941,18.94H302  c0.044,0,0.085,0.005,0.129,0.005c0.057,0,0.117-0.005,0.175-0.005h347.37c10.461,0,18.939-8.479,18.939-18.94  S660.135,718.636,649.674,718.636z M560.805,102.124c12.104,0,21.951,9.851,21.951,21.951c0,12.1-9.848,21.945-21.951,21.945  c-12.102,0-21.944-9.845-21.944-21.945C538.86,111.975,548.703,102.124,560.805,102.124z M312.355,89.821l141.344,141.342  c0.004,0.005,0.006,0.005,0.01,0.011c0.002,0,0.004,0,0.008,0.006l141.342,141.347c-35.92,29.807-80.69,46.03-127.954,46.03  c-53.632,0-104.054-20.884-141.977-58.81c-37.922-37.919-58.805-88.338-58.805-141.97  C266.323,170.512,282.546,125.742,312.355,89.821z M284.89,371.915c4.265,5.025,8.744,9.91,13.455,14.619  c0.137,0.137,0.276,0.268,0.413,0.403l-54.926,54.926c-4.347-5.326-9.695-9.802-15.762-13.135L284.89,371.915z M202.438,491.103  c-8.563,0-15.532-6.965-15.532-15.531c0-8.561,6.969-15.531,15.532-15.531s15.531,6.972,15.531,15.531  C217.969,484.138,211.001,491.103,202.438,491.103z M314.204,718.636l-90.201-194.215c6.903-3.063,13.046-7.532,18.045-13.062  L449.32,718.636H314.204z" fill="#041C3F"/></svg>